<?xml version="1.0" encoding="utf-8"?>
<!-- Generator: Adobe Illustrator 23.0.4, SVG Export Plug-In . SVG Version: 6.00 Build 0)  -->
<svg version="1.1" id="Layer_1" xmlns="http://www.w3.org/2000/svg" xmlns:xlink="http://www.w3.org/1999/xlink" x="0px" y="0px"
	 viewBox="0 0 1728 540" style="enable-background:new 0 0 1728 540;" xml:space="preserve">
<style type="text/css">
	.st0{fill:#78662F;}
</style>
<g>
	<path class="st0" d="M529.71,220.4V6.93h129.24v30.29h-86.25c-2.6,0-4.9-2.31-4.9-4.9V30c0-8.37-6.64-15-15-15
		c-8.37,0-15,6.63-15,15s6.63,15,15,15h6.35c2.6,0,4.9,2.31,4.9,4.9v44.42c0,2.6-2.31,4.9-4.9,4.9h-6.35c-8.37,0-15,6.92-15,15.29
		c0,8.08,6.63,14.71,15,14.71h6.35c2.6,0,4.9,2.31,4.9,4.9v86.25H529.71z M647.98,130.1h-71.83c-8.94,0-16.15-6.92-16.15-15.58
		c0-8.94,7.21-16.15,16.15-16.15h71.83V130.1z"/>
	<path class="st0" d="M800.09,144.24c0,53.08-27.69,80.77-68.66,80.77c-40.68,0-68.37-27.41-68.37-80.77
		c0-49.62,26.83-80.77,68.37-80.77C772.98,63.47,800.09,94.62,800.09,144.24z M694.8,144.24c0-7.5-6.35-13.85-13.85-13.85
		c-7.79,0-14.13,6.35-14.13,13.85c0,7.79,6.35,14.14,14.13,14.14C688.45,158.38,694.8,152.03,694.8,144.24z M764.32,144.82
		c0-38.37-12.12-55.39-32.89-55.39c-20.48,0-32.89,17.02-32.89,55.39c0,36.35,12.4,54.23,32.89,54.23
		C752.21,199.05,764.32,181.17,764.32,144.82z M795.76,144.24c0-7.5-6.35-13.85-13.85-13.85c-7.79,0-14.14,6.35-14.14,13.85
		c0,7.79,6.35,14.14,14.14,14.14C789.42,158.38,795.76,152.03,795.76,144.24z"/>
	<path class="st0" d="M904.05,117.12c-0.58-19.9-10.96-30.29-28.56-30.29c-15.87,0-25.67,9.52-25.67,19.62
		c0,8.94,4.62,14.71,20.77,17.89l27.69,5.48c25.67,5.19,43.85,20.48,43.85,45.58c0,31.73-27.98,49.62-64.62,49.62
		c-42.41,0-66.35-23.37-67.5-53.37h35.77c1.15,21.06,14.71,30,33.75,30c16.73,0,27.69-8.08,27.69-21.06
		c0-9.23-5.77-15.58-21.06-18.75l-27.12-5.48c-27.69-5.48-43.85-21.06-43.85-45c0-26.25,23.66-47.89,61.73-47.89
		c42.69,0,60.29,24.52,60.87,53.66H904.05z M890.78,142.51c0-6.92-6.06-12.98-12.98-12.98c-7.21,0-13.27,6.06-13.27,12.98
		c0,7.21,6.06,13.27,13.27,13.27C884.73,155.78,890.78,149.72,890.78,142.51z"/>
	<path class="st0" d="M1046.41,117.12c-0.58-19.9-10.96-30.29-28.56-30.29c-15.87,0-25.67,9.52-25.67,19.62
		c0,8.94,4.62,14.71,20.77,17.89l27.69,5.48c25.67,5.19,43.85,20.48,43.85,45.58c0,31.73-27.98,49.62-64.62,49.62
		c-42.41,0-66.35-23.37-67.5-53.37h35.77c1.15,21.06,14.71,30,33.75,30c16.73,0,27.69-8.08,27.69-21.06
		c0-9.23-5.77-15.58-21.06-18.75l-27.12-5.48c-27.69-5.48-43.85-21.06-43.85-45c0-26.25,23.65-47.89,61.73-47.89
		c42.69,0,60.29,24.52,60.87,53.66H1046.41z M1033.14,142.51c0-6.92-6.06-12.98-12.98-12.98c-7.21,0-13.27,6.06-13.27,12.98
		c0,7.21,6.06,13.27,13.27,13.27C1027.09,155.78,1033.14,149.72,1033.14,142.51z"/>
	<path class="st0" d="M1100.53,6.93h39.52v40.1h-39.52V6.93z M1103.41,67.51h33.75V220.4h-33.75V67.51z"/>
	<path class="st0" d="M1163.96,6.64h34.33V220.4h-34.33V6.64z"/>
	<path class="st0" d="M806.93,488.36c-10.2,0-19.04-1.88-26.54-5.63c-7.5-3.75-14.33-9.85-20.48-18.32h-0.58v19.62h-23.37V277.78
		h23.37v78.46h0.58c5.58-7.69,12.21-13.75,19.9-18.17c7.69-4.42,17.02-6.64,27.98-6.64c9.42,0,18.03,1.78,25.82,5.34
		c7.79,3.56,14.47,8.65,20.05,15.29c5.58,6.63,9.9,14.86,12.98,24.66c3.07,9.81,4.62,20.87,4.62,33.17
		c0,11.93-1.44,22.74-4.33,32.45c-2.88,9.71-7.12,17.98-12.69,24.81c-5.58,6.83-12.36,12.07-20.34,15.72
		C825.92,486.53,816.92,488.36,806.93,488.36z M805.2,468.75c7.11,0,13.31-1.49,18.61-4.47c5.29-2.98,9.66-7.07,13.13-12.26
		c3.46-5.19,6.06-11.35,7.79-18.46c1.73-7.11,2.6-14.9,2.6-23.37c0-8.27-0.87-16.01-2.6-23.22c-1.73-7.21-4.33-13.46-7.79-18.75
		c-3.46-5.29-7.79-9.42-12.98-12.4c-5.19-2.98-11.35-4.47-18.46-4.47c-8.08,0-15.14,1.54-21.2,4.62
		c-6.06,3.08-11.01,7.31-14.86,12.69c-3.85,5.39-6.73,11.64-8.65,18.75c-1.92,7.12-2.88,14.71-2.88,22.79
		c0,8.46,0.96,16.25,2.88,23.37c1.92,7.12,4.85,13.27,8.8,18.46c3.94,5.19,8.89,9.28,14.86,12.26
		C790.38,467.26,797.31,468.75,805.2,468.75z"/>
	<path class="st0" d="M902.61,533.36c-4.43,0-8.22-0.19-11.39-0.58c-3.17-0.39-6.4-1.25-9.66-2.6v-20.77h1.15
		c1.54,0.96,3.61,1.73,6.2,2.31c2.6,0.58,5.81,0.87,9.66,0.87c5,0,9.23-1.2,12.69-3.61c3.46-2.41,6.64-7.26,9.52-14.57l5.77-14.71
		l-58.27-144.81h25.39l35.19,92.89c1.15,3.27,2.31,6.59,3.46,9.95c1.15,3.37,2.21,6.49,3.17,9.38c1.15,3.46,2.31,6.73,3.46,9.81
		h0.58c0.96-3.07,2.02-6.35,3.17-9.81c0.96-2.88,2.02-6.01,3.17-9.38c1.15-3.36,2.31-6.68,3.46-9.95l34.04-92.89h24.81
		l-63.75,161.26c-3.08,7.69-6.11,13.94-9.09,18.75c-2.98,4.8-6.16,8.6-9.52,11.39c-3.37,2.79-6.92,4.66-10.67,5.62
		C911.41,532.88,907.22,533.36,902.61,533.36z"/>
</g>
</svg>
