<?xml version="1.0" encoding="utf-8"?>
<!-- Generator: Adobe Illustrator 23.0.4, SVG Export Plug-In . SVG Version: 6.00 Build 0)  -->
<svg version="1.1" id="Layer_1" xmlns="http://www.w3.org/2000/svg" xmlns:xlink="http://www.w3.org/1999/xlink" x="0px" y="0px"
	 viewBox="0 0 1728 603.32" style="enable-background:new 0 0 1728 603.32;" xml:space="preserve">
<style type="text/css">
	.st0{fill:#5E5E66;}
</style>
<g>
	<g>
		<path class="st0" d="M249.46,336.86h44.07l27.69,105.71c0.99,4.57,2.03,9.58,3.13,15.04c1.09,5.46,2.13,10.47,3.13,15.04
			c0.99,5.36,1.98,10.82,2.98,16.38h0.6c1.19-5.16,2.28-10.32,3.28-15.48c0.99-4.56,2.03-9.48,3.13-14.74
			c1.09-5.26,2.23-10.27,3.42-15.04l23.23-106.9h41.69l23.23,106.6c0.99,4.76,2.08,9.78,3.28,15.04c1.19,5.26,2.28,10.18,3.28,14.74
			c0.99,5.16,2.08,10.42,3.28,15.78h0.6c1.19-5.36,2.38-10.82,3.57-16.38c0.99-4.56,2.13-9.63,3.42-15.19
			c1.29-5.56,2.43-10.62,3.42-15.19l26.8-105.41h42.58l-60.74,212.91h-40.2l-25.91-114.05c-1-3.97-1.89-8.14-2.68-12.51
			c-0.8-4.36-1.59-8.44-2.38-12.21c-0.8-4.36-1.59-8.73-2.38-13.1h-0.6c-0.6,4.37-1.29,8.74-2.08,13.1
			c-0.6,3.77-1.29,7.84-2.08,12.21c-0.8,4.37-1.69,8.54-2.68,12.51l-26.2,114.05h-39.9L249.46,336.86z"/>
		<path class="st0" d="M533.08,336.86h40.5v36.33h-40.5V336.86z M533.08,397.01h40.5v152.76h-40.5V397.01z"/>
		<path class="st0" d="M597.04,336.86h40.5v212.91h-40.5V336.86z"/>
		<path class="st0" d="M720.61,554.23c-9.53,0-18.27-1.89-26.2-5.66c-7.94-3.77-14.74-9.13-20.4-16.08
			c-5.66-6.95-10.08-15.43-13.25-25.46c-3.18-10.02-4.76-21.19-4.76-33.5c0-11.91,1.59-22.83,4.76-32.75
			c3.17-9.92,7.69-18.41,13.55-25.46c5.85-7.04,12.75-12.55,20.7-16.53c7.94-3.97,16.67-5.96,26.2-5.96
			c10.72,0,19.55,2.19,26.5,6.55c6.95,4.37,12.51,9.73,16.67,16.08h0.89v-78.61h40.5v212.91h-39.01v-19.95h-0.6
			c-4.57,7.35-10.62,13.25-18.16,17.72C740.46,551.99,731.33,554.23,720.61,554.23z M729.55,520.28c12.11,0,21.24-4.12,27.39-12.36
			c6.15-8.24,9.23-19.4,9.23-33.5c0-7.34-0.65-14-1.94-19.95c-1.29-5.96-3.33-11.06-6.1-15.34c-2.78-4.27-6.4-7.59-10.87-9.98
			c-4.47-2.38-9.98-3.57-16.53-3.57c-11.12,0-19.5,4.47-25.16,13.4c-5.66,8.93-8.49,20.45-8.49,34.54c0,14.89,2.78,26.4,8.34,34.54
			C710.98,516.22,719.02,520.28,729.55,520.28z"/>
		<path class="st0" d="M829.51,458.64h80.7v34.84h-80.7V458.64z"/>
		<g>
			<path class="st0" d="M871.84,336.86h171.22v36.33h-64.02v176.58h-43.18V373.18h-64.02V336.86z"/>
			<path class="st0" d="M1023.19,567.93h14.29c8.14,0,13.94-1.89,17.42-5.66c3.47-3.77,5.21-8.84,5.21-15.19
				c0-1.98-0.2-4.21-0.6-6.7c-0.4-2.48-1.04-5.31-1.93-8.49c-0.89-3.17-2.09-6.89-3.57-11.17c-1.49-4.27-3.33-9.28-5.51-15.04
				l-41.09-108.69h42.58l22.63,68.79c1.19,3.57,2.33,7.29,3.42,11.17c1.09,3.87,2.13,7.5,3.13,10.87c0.99,3.77,2.08,7.55,3.28,11.31
				h0.6c0.79-3.77,1.68-7.54,2.68-11.31c0.79-3.37,1.74-7,2.83-10.87c1.09-3.87,2.23-7.59,3.42-11.17l21.44-68.79h40.79
				l-53.3,156.63c-2.98,8.53-6.01,15.73-9.08,21.59c-3.08,5.85-6.65,10.62-10.72,14.29c-4.07,3.67-8.84,6.3-14.29,7.89
				c-5.46,1.59-12.06,2.38-19.8,2.38h-23.82V567.93z"/>
			<path class="st0" d="M1165.56,397.01h39.01v19.06h0.89c4.96-6.75,11.06-12.31,18.31-16.67c7.24-4.36,16.13-6.55,26.65-6.55
				c10.12,0,19.25,1.99,27.39,5.96c8.14,3.97,15.14,9.48,20.99,16.53c5.85,7.05,10.32,15.54,13.4,25.46
				c3.08,9.93,4.61,20.84,4.61,32.75c0,12.31-1.59,23.48-4.76,33.5c-3.18,10.03-7.7,18.51-13.55,25.46
				c-5.86,6.95-12.86,12.31-20.99,16.08c-8.14,3.77-17.08,5.66-26.8,5.66c-10.72,0-19.65-1.99-26.8-5.96
				c-7.15-3.97-12.91-9.23-17.27-15.78h-0.6v67.3h-40.5V397.01z M1242.08,520.58c10.32,0,18.51-4.02,24.57-12.06
				c6.05-8.04,9.08-19.3,9.08-33.8c0-14.49-2.73-26.3-8.19-35.43c-5.46-9.13-14.44-13.7-26.95-13.7c-6.36,0-11.76,1.29-16.23,3.87
				c-4.47,2.58-8.14,6.06-11.02,10.42c-2.88,4.37-4.96,9.58-6.25,15.63c-1.29,6.06-1.94,12.46-1.94,19.21
				c0,13.9,3.13,25.01,9.38,33.35C1220.79,516.41,1229.97,520.58,1242.08,520.58z"/>
			<path class="st0" d="M1407.08,554.23c-12.71,0-23.97-2.08-33.8-6.25c-9.83-4.17-18.12-9.87-24.86-17.12
				c-6.75-7.24-11.86-15.83-15.34-25.76c-3.48-9.92-5.21-20.55-5.21-31.86c0-11.32,1.83-21.89,5.51-31.71
				c3.67-9.83,8.83-18.31,15.48-25.46c6.65-7.15,14.59-12.8,23.82-16.97c9.23-4.17,19.4-6.25,30.52-6.25
				c12.31,0,23.12,2.23,32.46,6.7c9.33,4.47,17.17,10.77,23.52,18.91c6.35,8.14,11.17,17.82,14.44,29.03
				c3.28,11.22,4.91,23.67,4.91,37.37h-110.77c1.59,11.91,5.61,21.24,12.06,27.99c6.45,6.75,15.43,10.12,26.95,10.12
				c7.94,0,14.29-1.68,19.06-5.06c4.76-3.37,8.24-7.94,10.42-13.7h39.9c-1.39,6.75-3.92,13.15-7.59,19.21
				c-3.68,6.06-8.44,11.37-14.29,15.93c-5.86,4.57-12.76,8.19-20.69,10.87C1425.64,552.89,1416.8,554.23,1407.08,554.23z
				 M1403.8,424.1c-10.72,0-18.86,2.93-24.42,8.78c-5.56,5.86-9.23,13.85-11.02,23.97h67.89c-0.6-9.72-3.82-17.62-9.68-23.67
				C1420.72,427.13,1413.13,424.1,1403.8,424.1z"/>
		</g>
	</g>
	<g>
		<g>
			<g>
				<path class="st0" d="M801.29,287.23L876.5,3.35h47.05l-74.54,283.87H801.29z"/>
			</g>
		</g>
		<g>
			<g>
				<path class="st0" d="M634.48,167.16v-44.41h59.88V62.87h44.4v59.88h60.55v44.41h-60.55v60.55h-44.4v-60.55H634.48z"/>
			</g>
		</g>
		<g>
			<g>
				<path class="st0" d="M928.69,167.16v-44.41h59.88V62.87h44.4v59.88h60.55v44.41h-60.55v60.55h-44.4v-60.55H928.69z"/>
			</g>
		</g>
	</g>
</g>
</svg>
