<?xml version="1.0" encoding="utf-8"?>
<!-- Generator: Adobe Illustrator 23.0.4, SVG Export Plug-In . SVG Version: 6.00 Build 0)  -->
<svg version="1.1" id="Layer_1" xmlns="http://www.w3.org/2000/svg" xmlns:xlink="http://www.w3.org/1999/xlink" x="0px" y="0px"
	 viewBox="0 0 1728 1728" style="enable-background:new 0 0 1728 1728;" xml:space="preserve">
<style type="text/css">
	.st0{fill:#5E5E66;}
	.st1{fill:#78662F;}
</style>
<g>
	<g>
		<g>
			<path class="st0" d="M249.46,1143.73h44.07l27.69,105.71c0.99,4.57,2.03,9.58,3.13,15.04c1.09,5.46,2.13,10.47,3.13,15.04
				c0.99,5.36,1.98,10.82,2.98,16.38h0.6c1.19-5.16,2.28-10.32,3.28-15.48c0.99-4.56,2.03-9.48,3.13-14.74
				c1.09-5.26,2.23-10.27,3.42-15.04l23.23-106.9h41.69l23.23,106.6c0.99,4.76,2.08,9.78,3.28,15.04
				c1.19,5.26,2.28,10.18,3.28,14.74c0.99,5.16,2.08,10.42,3.28,15.78h0.6c1.19-5.36,2.38-10.82,3.57-16.38
				c0.99-4.56,2.13-9.63,3.42-15.19c1.29-5.56,2.43-10.62,3.42-15.19l26.8-105.41h42.58l-60.74,212.91h-40.2l-25.91-114.05
				c-1-3.97-1.89-8.14-2.68-12.51c-0.8-4.36-1.59-8.44-2.38-12.21c-0.8-4.36-1.59-8.73-2.38-13.1h-0.6
				c-0.6,4.37-1.29,8.74-2.08,13.1c-0.6,3.77-1.29,7.84-2.08,12.21c-0.8,4.37-1.69,8.54-2.68,12.51l-26.2,114.05h-39.9
				L249.46,1143.73z"/>
			<path class="st0" d="M533.08,1143.73h40.5v36.33h-40.5V1143.73z M533.08,1203.88h40.5v152.76h-40.5V1203.88z"/>
			<path class="st0" d="M597.04,1143.73h40.5v212.91h-40.5V1143.73z"/>
			<path class="st0" d="M720.61,1361.11c-9.53,0-18.27-1.89-26.2-5.66c-7.94-3.77-14.74-9.13-20.4-16.08
				c-5.66-6.95-10.08-15.43-13.25-25.46c-3.18-10.02-4.76-21.19-4.76-33.5c0-11.91,1.59-22.83,4.76-32.75
				c3.17-9.92,7.69-18.41,13.55-25.46c5.85-7.04,12.75-12.55,20.7-16.53c7.94-3.97,16.67-5.96,26.2-5.96
				c10.72,0,19.55,2.19,26.5,6.55c6.95,4.37,12.51,9.73,16.67,16.08h0.89v-78.61h40.5v212.91h-39.01v-19.95h-0.6
				c-4.57,7.35-10.62,13.25-18.16,17.72C740.46,1358.87,731.33,1361.11,720.61,1361.11z M729.55,1327.16
				c12.11,0,21.24-4.12,27.39-12.36c6.15-8.24,9.23-19.4,9.23-33.5c0-7.34-0.65-14-1.94-19.95c-1.29-5.96-3.33-11.06-6.1-15.34
				c-2.78-4.27-6.4-7.59-10.87-9.98s-9.98-3.57-16.53-3.57c-11.12,0-19.5,4.47-25.16,13.4c-5.66,8.93-8.49,20.45-8.49,34.54
				c0,14.89,2.78,26.4,8.34,34.54C710.98,1323.09,719.02,1327.16,729.55,1327.16z"/>
			<path class="st0" d="M829.51,1265.52h80.7v34.84h-80.7V1265.52z"/>
			<g>
				<path class="st0" d="M871.84,1143.73h171.22v36.33h-64.02v176.58h-43.18v-176.58h-64.02V1143.73z"/>
				<path class="st0" d="M1023.19,1374.8h14.29c8.14,0,13.94-1.89,17.42-5.66c3.47-3.77,5.21-8.84,5.21-15.19
					c0-1.98-0.2-4.21-0.6-6.7c-0.4-2.48-1.04-5.31-1.93-8.49c-0.89-3.17-2.09-6.89-3.57-11.17c-1.49-4.27-3.33-9.28-5.51-15.04
					l-41.09-108.69h42.58l22.63,68.79c1.19,3.57,2.33,7.29,3.42,11.17c1.09,3.87,2.13,7.5,3.13,10.87
					c0.99,3.77,2.08,7.55,3.28,11.31h0.6c0.79-3.77,1.68-7.54,2.68-11.31c0.79-3.37,1.74-7,2.83-10.87
					c1.09-3.87,2.23-7.59,3.42-11.17l21.44-68.79h40.79l-53.3,156.63c-2.98,8.53-6.01,15.73-9.08,21.59
					c-3.08,5.85-6.65,10.62-10.72,14.29c-4.07,3.67-8.84,6.3-14.29,7.89c-5.46,1.59-12.06,2.38-19.8,2.38h-23.82V1374.8z"/>
				<path class="st0" d="M1165.56,1203.88h39.01v19.06h0.89c4.96-6.75,11.06-12.31,18.31-16.67c7.24-4.36,16.13-6.55,26.65-6.55
					c10.12,0,19.25,1.99,27.39,5.96c8.14,3.97,15.14,9.48,20.99,16.53c5.85,7.05,10.32,15.54,13.4,25.46
					c3.08,9.93,4.61,20.84,4.61,32.75c0,12.31-1.59,23.48-4.76,33.5c-3.18,10.03-7.7,18.51-13.55,25.46
					c-5.86,6.95-12.86,12.31-20.99,16.08c-8.14,3.77-17.08,5.66-26.8,5.66c-10.72,0-19.65-1.99-26.8-5.96
					c-7.15-3.97-12.91-9.23-17.27-15.78h-0.6v67.3h-40.5V1203.88z M1242.08,1327.46c10.32,0,18.51-4.02,24.57-12.06
					c6.05-8.04,9.08-19.3,9.08-33.8c0-14.49-2.73-26.3-8.19-35.43c-5.46-9.13-14.44-13.7-26.95-13.7c-6.36,0-11.76,1.29-16.23,3.87
					c-4.47,2.58-8.14,6.06-11.02,10.42c-2.88,4.37-4.96,9.58-6.25,15.63c-1.29,6.06-1.94,12.46-1.94,19.21
					c0,13.9,3.13,25.01,9.38,33.35C1220.79,1323.29,1229.97,1327.46,1242.08,1327.46z"/>
				<path class="st0" d="M1407.08,1361.11c-12.71,0-23.97-2.08-33.8-6.25c-9.83-4.17-18.12-9.87-24.86-17.12
					c-6.75-7.24-11.86-15.83-15.34-25.76c-3.48-9.92-5.21-20.55-5.21-31.86c0-11.32,1.83-21.89,5.51-31.71
					c3.67-9.83,8.83-18.31,15.48-25.46c6.65-7.15,14.59-12.8,23.82-16.97c9.23-4.17,19.4-6.25,30.52-6.25
					c12.31,0,23.12,2.23,32.46,6.7c9.33,4.47,17.17,10.77,23.52,18.91c6.35,8.14,11.17,17.82,14.44,29.03
					c3.28,11.22,4.91,23.67,4.91,37.37h-110.77c1.59,11.91,5.61,21.24,12.06,27.99c6.45,6.75,15.43,10.12,26.95,10.12
					c7.94,0,14.29-1.68,19.06-5.06c4.76-3.37,8.24-7.94,10.42-13.7h39.9c-1.39,6.75-3.92,13.15-7.59,19.21
					c-3.68,6.06-8.44,11.37-14.29,15.93c-5.86,4.57-12.76,8.19-20.69,10.87C1425.64,1359.77,1416.8,1361.11,1407.08,1361.11z
					 M1403.8,1230.98c-10.72,0-18.86,2.93-24.42,8.78c-5.56,5.86-9.23,13.85-11.02,23.97h67.89c-0.6-9.72-3.82-17.62-9.68-23.67
					C1420.72,1234.01,1413.13,1230.98,1403.8,1230.98z"/>
			</g>
		</g>
		<g>
			<g>
				<g>
					<path class="st0" d="M801.29,1094.11l75.21-283.87h47.05l-74.54,283.87H801.29z"/>
				</g>
			</g>
			<g>
				<g>
					<path class="st0" d="M634.48,974.04v-44.41h59.88v-59.88h44.4v59.88h60.55v44.41h-60.55v60.55h-44.4v-60.55H634.48z"/>
				</g>
			</g>
			<g>
				<g>
					<path class="st0" d="M928.69,974.04v-44.41h59.88v-59.88h44.4v59.88h60.55v44.41h-60.55v60.55h-44.4v-60.55H928.69z"/>
				</g>
			</g>
		</g>
	</g>
	<g>
		<path class="st1" d="M529.71,535.1V321.62h129.24v30.29h-86.25c-2.6,0-4.9-2.31-4.9-4.9v-2.31c0-8.37-6.64-15-15-15
			c-8.37,0-15,6.63-15,15s6.63,15,15,15h6.35c2.6,0,4.9,2.31,4.9,4.9v44.42c0,2.6-2.31,4.9-4.9,4.9h-6.35c-8.37,0-15,6.92-15,15.29
			c0,8.08,6.63,14.71,15,14.71h6.35c2.6,0,4.9,2.31,4.9,4.9v86.25H529.71z M647.98,444.8h-71.83c-8.94,0-16.15-6.92-16.15-15.58
			c0-8.94,7.21-16.15,16.15-16.15h71.83V444.8z"/>
		<path class="st1" d="M800.09,458.94c0,53.08-27.69,80.77-68.66,80.77c-40.68,0-68.37-27.41-68.37-80.77
			c0-49.62,26.83-80.77,68.37-80.77C772.98,378.16,800.09,409.32,800.09,458.94z M694.8,458.94c0-7.5-6.35-13.85-13.85-13.85
			c-7.79,0-14.13,6.35-14.13,13.85c0,7.79,6.35,14.14,14.13,14.14C688.45,473.07,694.8,466.73,694.8,458.94z M764.32,459.51
			c0-38.37-12.12-55.39-32.89-55.39c-20.48,0-32.89,17.02-32.89,55.39c0,36.35,12.4,54.23,32.89,54.23
			C752.21,513.75,764.32,495.86,764.32,459.51z M795.76,458.94c0-7.5-6.35-13.85-13.85-13.85c-7.79,0-14.14,6.35-14.14,13.85
			c0,7.79,6.35,14.14,14.14,14.14C789.42,473.07,795.76,466.73,795.76,458.94z"/>
		<path class="st1" d="M904.05,431.82c-0.58-19.9-10.96-30.29-28.56-30.29c-15.87,0-25.67,9.52-25.67,19.62
			c0,8.94,4.62,14.71,20.77,17.89l27.69,5.48c25.67,5.19,43.85,20.48,43.85,45.58c0,31.73-27.98,49.62-64.62,49.62
			c-42.41,0-66.35-23.37-67.5-53.37h35.77c1.15,21.06,14.71,30,33.75,30c16.73,0,27.69-8.08,27.69-21.06
			c0-9.23-5.77-15.58-21.06-18.75l-27.12-5.48c-27.69-5.48-43.85-21.06-43.85-45c0-26.25,23.66-47.89,61.73-47.89
			c42.69,0,60.29,24.52,60.87,53.66H904.05z M890.78,457.21c0-6.92-6.06-12.98-12.98-12.98c-7.21,0-13.27,6.06-13.27,12.98
			c0,7.21,6.06,13.27,13.27,13.27C884.73,470.48,890.78,464.42,890.78,457.21z"/>
		<path class="st1" d="M1046.41,431.82c-0.58-19.9-10.96-30.29-28.56-30.29c-15.87,0-25.67,9.52-25.67,19.62
			c0,8.94,4.62,14.71,20.77,17.89l27.69,5.48c25.67,5.19,43.85,20.48,43.85,45.58c0,31.73-27.98,49.62-64.62,49.62
			c-42.41,0-66.35-23.37-67.5-53.37h35.77c1.15,21.06,14.71,30,33.75,30c16.73,0,27.69-8.08,27.69-21.06
			c0-9.23-5.77-15.58-21.06-18.75l-27.12-5.48c-27.69-5.48-43.85-21.06-43.85-45c0-26.25,23.65-47.89,61.73-47.89
			c42.69,0,60.29,24.52,60.87,53.66H1046.41z M1033.14,457.21c0-6.92-6.06-12.98-12.98-12.98c-7.21,0-13.27,6.06-13.27,12.98
			c0,7.21,6.06,13.27,13.27,13.27C1027.09,470.48,1033.14,464.42,1033.14,457.21z"/>
		<path class="st1" d="M1100.53,321.62h39.52v40.1h-39.52V321.62z M1103.41,382.2h33.75V535.1h-33.75V382.2z"/>
		<path class="st1" d="M1163.96,321.33h34.33V535.1h-34.33V321.33z"/>
		<path class="st1" d="M806.93,803.06c-10.2,0-19.04-1.88-26.54-5.63c-7.5-3.75-14.33-9.85-20.48-18.32h-0.58v19.62h-23.37V592.47
			h23.37v78.46h0.58c5.58-7.69,12.21-13.75,19.9-18.17c7.69-4.42,17.02-6.64,27.98-6.64c9.42,0,18.03,1.78,25.82,5.34
			c7.79,3.56,14.47,8.65,20.05,15.29c5.58,6.63,9.9,14.86,12.98,24.66c3.07,9.81,4.62,20.87,4.62,33.17
			c0,11.93-1.44,22.74-4.33,32.45c-2.88,9.71-7.12,17.98-12.69,24.81c-5.58,6.83-12.36,12.07-20.34,15.72
			C825.92,801.23,816.92,803.06,806.93,803.06z M805.2,783.44c7.11,0,13.31-1.49,18.61-4.47c5.29-2.98,9.66-7.07,13.13-12.26
			c3.46-5.19,6.06-11.35,7.79-18.46c1.73-7.11,2.6-14.9,2.6-23.37c0-8.27-0.87-16.01-2.6-23.22c-1.73-7.21-4.33-13.46-7.79-18.75
			c-3.46-5.29-7.79-9.42-12.98-12.4c-5.19-2.98-11.35-4.47-18.46-4.47c-8.08,0-15.14,1.54-21.2,4.62
			c-6.06,3.08-11.01,7.31-14.86,12.69c-3.85,5.39-6.73,11.64-8.65,18.75c-1.92,7.12-2.88,14.71-2.88,22.79
			c0,8.46,0.96,16.25,2.88,23.37c1.92,7.12,4.85,13.27,8.8,18.46c3.94,5.19,8.89,9.28,14.86,12.26
			C790.38,781.96,797.31,783.44,805.2,783.44z"/>
		<path class="st1" d="M902.61,848.06c-4.43,0-8.22-0.19-11.39-0.58c-3.17-0.39-6.4-1.25-9.66-2.6v-20.77h1.15
			c1.54,0.96,3.61,1.73,6.2,2.31c2.6,0.58,5.81,0.87,9.66,0.87c5,0,9.23-1.2,12.69-3.61c3.46-2.41,6.64-7.26,9.52-14.57l5.77-14.71
			l-58.27-144.81h25.39l35.19,92.89c1.15,3.27,2.31,6.59,3.46,9.95c1.15,3.37,2.21,6.49,3.17,9.38c1.15,3.46,2.31,6.73,3.46,9.81
			h0.58c0.96-3.07,2.02-6.35,3.17-9.81c0.96-2.88,2.02-6.01,3.17-9.38c1.15-3.36,2.31-6.68,3.46-9.95l34.04-92.89h24.81
			l-63.75,161.26c-3.08,7.69-6.11,13.94-9.09,18.75c-2.98,4.8-6.16,8.6-9.52,11.39c-3.37,2.79-6.92,4.66-10.67,5.62
			C911.41,847.58,907.22,848.06,902.61,848.06z"/>
	</g>
</g>
</svg>
